# xmcd
#
# Track frame offsets:
#	151
#	13603
#	25853
#	40441
#	54708
#	71368
#	83558
#	98595
#	109916
#
# Disc length: 1629 seconds
#
# Revision: 0
# Processed by: cddbd v1.5.2PL0 Copyright (c) Steve Scherf et al.
# Submitted via: audiograbber 1.83.01
#
DISCID=69065b09
DTITLE=The Platters - Gospel Greats
DYEAR=1999
DGENRE=Gospel
TTITLE0=Magnificent Sanctuary Band
TTITLE1=How Great Thou Art
TTITLE2=God Saw The Blood
TTITLE3=Put Your Hand In The Land
TTITLE4=Cheer Up My Brother
TTITLE5=Riding On The Mainline
TTITLE6=Sweet Inspiration
TTITLE7=Why In The Name Of God
TTITLE8=Heading Home
EXTD=
EXTT0=
EXTT1=
EXTT2=
EXTT3=
EXTT4=
EXTT5=
EXTT6=
EXTT7=
EXTT8=
PLAYORDER=
